<?xml version="1.0" standalone="no"?>
<!DOCTYPE svg PUBLIC "-//W3C//DTD SVG 20010904//EN"
 "http://www.w3.org/TR/2001/REC-SVG-20010904/DTD/svg10.dtd">
<svg version="1.0" xmlns="http://www.w3.org/2000/svg"
 width="536.000000pt" height="536.000000pt" viewBox="0 0 536.000000 536.000000"
 preserveAspectRatio="xMidYMid meet">
<metadata>
Created by potrace 1.14, written by Peter Selinger 2001-2017
</metadata>
<g transform="translate(0.000000,536.000000) scale(0.100000,-0.100000)"
fill="#000000" stroke="none">
<path d="M2488 5339 c-6 -39 -50 -61 -163 -79 -59 -10 -114 -25 -123 -33 -23
-20 -98 -57 -116 -57 -9 0 -30 -13 -48 -29 -18 -15 -51 -37 -73 -49 -22 -11
-49 -30 -60 -42 -11 -12 -37 -31 -57 -41 -21 -11 -42 -28 -48 -39 -6 -11 -23
-26 -38 -34 -35 -18 -222 -200 -222 -216 0 -13 -30 -49 -140 -170 -38 -41 -82
-93 -98 -115 -16 -22 -39 -48 -50 -59 -12 -10 -26 -35 -33 -55 -6 -20 -22 -47
-35 -61 -12 -14 -34 -50 -48 -82 -14 -31 -34 -62 -45 -70 -11 -8 -23 -26 -27
-42 -3 -15 -22 -49 -40 -76 -18 -27 -36 -61 -40 -77 -4 -15 -21 -50 -39 -78
-17 -27 -37 -72 -44 -100 -7 -27 -23 -64 -36 -81 -13 -17 -31 -59 -40 -93 -9
-34 -29 -88 -44 -119 -16 -31 -34 -84 -40 -117 -7 -33 -25 -87 -41 -120 -20
-43 -34 -93 -45 -175 -9 -63 -26 -134 -37 -157 -22 -49 -30 -117 -54 -458 -13
-198 -14 -265 -5 -385 16 -195 28 -264 58 -333 14 -33 33 -91 42 -130 10 -40
29 -89 44 -110 14 -21 33 -62 41 -91 9 -29 23 -59 31 -66 9 -7 29 -41 44 -75
16 -35 34 -66 40 -70 6 -3 22 -27 35 -53 13 -26 34 -56 46 -67 12 -11 29 -33
37 -50 18 -34 39 -60 162 -202 93 -107 164 -176 243 -240 157 -125 277 -213
293 -213 7 0 27 -11 43 -25 17 -14 57 -37 89 -51 32 -14 65 -31 73 -38 20 -17
101 -46 127 -46 36 0 93 -32 93 -51 0 -26 29 -39 56 -27 31 14 205 -7 261 -32
31 -13 43 -25 43 -39 0 -21 5 -21 211 -21 201 0 211 1 206 19 -7 28 39 49 129
61 151 20 209 33 266 61 32 16 80 34 108 40 27 6 66 22 86 35 20 14 57 32 83
40 25 9 63 29 83 45 20 16 43 29 51 29 14 0 121 73 186 127 18 15 42 33 52 38
33 19 101 80 206 185 135 136 156 159 179 195 10 17 26 39 36 50 40 46 89 113
114 155 15 25 37 61 49 80 12 19 28 51 35 70 8 19 26 51 40 70 15 19 33 53 40
75 7 22 25 60 40 85 15 25 35 78 44 119 9 40 27 94 40 120 26 51 39 136 57
367 10 126 9 201 -5 445 -10 162 -18 310 -18 329 -1 19 -12 60 -26 90 -14 30
-29 75 -33 100 -32 176 -40 211 -62 251 -13 24 -29 76 -36 114 -7 39 -25 93
-41 120 -15 28 -35 79 -44 115 -9 35 -25 74 -35 85 -11 11 -27 47 -37 80 -10
33 -32 79 -48 102 -22 32 -29 52 -28 83 2 36 -2 43 -29 58 -19 11 -42 39 -61
77 -17 33 -41 73 -54 88 -13 16 -24 35 -24 42 0 7 -16 32 -35 55 -19 23 -35
45 -35 49 0 5 -22 34 -50 65 -27 31 -50 63 -50 70 0 7 -10 21 -21 32 -12 10
-33 37 -47 59 -36 57 -349 364 -378 371 -13 4 -29 15 -35 25 -5 10 -26 28 -47
38 -20 10 -54 33 -75 49 -21 17 -55 36 -75 43 -20 6 -48 22 -62 34 -22 20
-104 55 -130 55 -5 0 -30 13 -57 30 -40 24 -69 32 -173 45 -134 17 -183 36
-188 73 -3 21 -7 22 -137 22 -129 0 -134 -1 -137 -21z m202 -139 c130 -16 280
-46 325 -65 17 -7 53 -20 80 -29 60 -20 132 -58 280 -151 139 -87 193 -114
227 -115 14 0 33 -3 42 -6 27 -10 18 -24 -17 -24 -77 0 -182 -107 -208 -213
-15 -62 1 -151 44 -230 56 -106 194 -210 296 -224 49 -7 133 18 239 69 46 22
84 39 85 37 2 -2 12 -31 24 -64 33 -92 97 -246 123 -290 13 -22 27 -53 31 -70
4 -16 17 -61 29 -100 11 -38 23 -79 26 -90 3 -11 10 -51 15 -89 4 -39 13 -81
18 -95 6 -15 10 -37 9 -51 -1 -24 12 -144 31 -285 23 -167 3 -521 -31 -559 -4
-6 -8 -19 -8 -31 0 -11 -16 -45 -35 -75 -24 -38 -35 -66 -35 -92 0 -21 -3 -38
-7 -38 -5 0 -17 -19 -28 -43 -11 -23 -34 -63 -52 -89 -18 -26 -33 -54 -33 -62
0 -8 -7 -17 -16 -20 -13 -5 -14 -9 -4 -21 9 -11 9 -19 2 -28 -6 -7 -12 -30
-14 -51 -1 -23 -9 -41 -19 -46 -9 -5 -19 -23 -22 -40 -4 -17 -13 -30 -21 -30
-9 0 -18 -14 -22 -35 -5 -26 -13 -37 -30 -41 -15 -4 -24 -13 -24 -26 0 -17 -5
-19 -26 -15 -26 5 -42 -4 -89 -48 -11 -11 -52 -45 -90 -75 -38 -29 -80 -65
-92 -78 -121 -131 -179 -198 -192 -225 -9 -18 -23 -32 -31 -32 -28 -1 -60 -16
-60 -30 0 -7 -8 -21 -17 -30 -15 -16 -18 -16 -28 -2 -10 14 -13 14 -26 -5 -33
-48 -38 -53 -39 -40 0 21 -20 13 -32 -13 -7 -16 -19 -25 -33 -25 -13 0 -28 -7
-35 -15 -7 -8 -16 -12 -21 -10 -4 3 -13 -4 -19 -15 -10 -18 -17 -20 -56 -14
-43 6 -44 5 -44 -20 0 -25 -3 -26 -51 -26 -46 0 -55 -4 -85 -35 -38 -40 -44
-43 -44 -15 0 23 -8 25 -34 5 -12 -9 -25 -11 -40 -5 -12 4 -29 4 -37 0 -27
-15 -101 -23 -108 -11 -10 15 -51 2 -52 -18 -1 -14 -2 -14 -6 1 -3 13 -14 16
-46 15 -23 -2 -48 -6 -54 -10 -7 -4 -24 -5 -38 -1 -15 4 -25 2 -25 -5 0 -7 -8
-8 -22 -2 -30 11 -39 11 -62 -1 -10 -6 -21 -6 -25 -2 -3 5 -17 15 -30 23 -21
11 -25 11 -32 -2 -6 -9 -20 -13 -40 -11 -18 2 -38 -1 -45 -7 -9 -7 -19 -7 -33
0 -15 8 -23 7 -35 -4 -13 -14 -16 -13 -25 2 -9 16 -13 16 -32 5 -14 -9 -24
-10 -28 -3 -4 5 -27 11 -51 12 -25 2 -51 9 -58 16 -7 7 -23 11 -36 7 -12 -3
-35 2 -51 10 -17 9 -40 16 -53 16 -13 0 -35 8 -50 19 -15 10 -38 25 -52 33
-28 17 -67 78 -51 78 6 0 11 -4 11 -10 0 -5 9 -10 19 -10 11 0 22 -4 25 -9 4
-5 32 -17 64 -26 31 -9 71 -20 88 -26 69 -21 173 -3 262 46 53 29 157 127 196
185 47 71 118 219 123 259 7 50 9 50 -133 16 -58 -14 -158 -30 -222 -35 -64
-6 -190 -20 -279 -31 -89 -11 -203 -22 -253 -23 -50 -2 -93 -5 -96 -8 -2 -3
-1 -30 4 -61 7 -46 6 -57 -6 -62 -12 -4 -13 -8 -4 -17 7 -7 12 -17 12 -24 0
-20 -36 -4 -50 22 -13 24 -44 40 -67 36 -7 -2 -13 2 -13 8 0 5 -7 10 -15 10
-8 0 -15 9 -15 20 0 11 -6 20 -14 20 -8 0 -31 19 -50 43 -19 24 -46 49 -60 56
-13 8 -27 24 -30 37 -4 13 -12 24 -19 24 -6 0 -25 16 -42 36 -16 19 -38 43
-48 52 -10 9 -29 28 -42 41 -14 13 -25 35 -25 47 0 18 -6 24 -23 24 -24 0 -63
52 -52 70 3 5 -4 14 -15 20 -17 9 -19 14 -9 26 8 10 8 14 0 14 -6 0 -16 12
-22 28 -5 15 -18 43 -28 62 -9 19 -23 55 -31 80 -7 25 -25 79 -39 120 -24 70
-26 88 -26 250 0 220 22 358 90 565 7 22 13 47 14 55 1 36 35 137 52 155 11
12 16 29 13 41 -3 12 10 61 30 112 20 50 36 97 36 104 2 44 249 528 361 706
53 84 119 175 244 333 126 160 389 412 465 446 8 3 33 18 55 33 73 49 229 118
315 139 133 32 188 36 310 21z m-1180 -3891 c0 -11 -4 -17 -10 -14 -5 3 -10
13 -10 21 0 8 5 14 10 14 6 0 10 -9 10 -21z"/>
<path d="M3951 3033 c-1 -12 4 -25 9 -28 12 -7 12 2 0 30 -8 19 -9 19 -9 -2z"/>
<path d="M3971 2974 c0 -11 3 -14 6 -6 3 7 2 16 -1 19 -3 4 -6 -2 -5 -13z"/>
<path d="M3966 2806 c-19 -79 -19 -76 -1 -76 20 0 32 27 33 75 2 71 -14 72
-32 1z"/>
</g>
</svg>
